<svg width="8" height="8" viewBox="0 0 8 8" fill="none" xmlns="http://www.w3.org/2000/svg">
<path fill-rule="evenodd" clip-rule="evenodd" d="M6.9325 6.92494C7.25769 6.59974 7.25769 6.05043 6.94568 5.73402L5.20984 3.99379L6.94568 2.26234C7.25769 1.94593 7.25769 1.39222 6.9325 1.06703C6.60291 0.737438 6.05359 0.741833 5.73718 1.05384L4.00134 2.78529L2.26111 1.04945C1.96228 0.750622 1.39099 0.733044 1.0658 1.06263C0.740601 1.38783 0.753784 1.95912 1.05261 2.25795L2.79285 3.99379L1.05261 5.73841C0.753784 6.03724 0.740601 6.60414 1.0658 6.92933C1.39099 7.25892 1.96228 7.24574 2.26111 6.94252L4.00134 5.20228L5.73718 6.93812C6.05359 7.25453 6.60291 7.25453 6.9325 6.92494Z" fill="white"/>
</svg>
