<svg width="10" height="3" viewBox="0 0 10 3" fill="none" xmlns="http://www.w3.org/2000/svg">
<path d="M1.62598 2.38281C1.47624 2.38281 1.33464 2.34212 1.20117 2.26074C1.06771 2.17611 0.957031 2.06543 0.869141 1.92871C0.784505 1.79199 0.742188 1.64225 0.742188 1.47949C0.742188 1.31673 0.784505 1.16699 0.869141 1.03027C0.957031 0.893555 1.06771 0.784505 1.20117 0.703125C1.33464 0.621745 1.47624 0.581055 1.62598 0.581055H8.37402C8.53353 0.581055 8.68001 0.621745 8.81348 0.703125C8.94694 0.784505 9.05436 0.893555 9.13574 1.03027C9.21712 1.16699 9.25781 1.31673 9.25781 1.47949C9.25781 1.64225 9.21712 1.79199 9.13574 1.92871C9.05436 2.06543 8.94694 2.17611 8.81348 2.26074C8.68001 2.34212 8.53353 2.38281 8.37402 2.38281H1.62598Z" fill="black" fill-opacity="0.25"/>
</svg>
