<svg width="372" height="297" viewBox="0 0 372 297" fill="none" xmlns="http://www.w3.org/2000/svg">
<path fill-rule="evenodd" clip-rule="evenodd" d="M54.7868 0.224666C46.6252 -1.19595 38.8573 4.26865 37.4367 12.4302L36.1796 19.6524H166.4L54.7868 0.224666ZM363.652 54.728V115.16L371.415 70.5633C372.558 63.996 369.243 57.6837 363.652 54.728ZM335.195 278.652H214.005L316.853 296.554C325.014 297.975 332.782 292.51 334.203 284.349L335.195 278.652ZM12.6524 243.605V154.818L0.224666 226.216C-1.19596 234.377 4.26866 242.145 12.4302 243.566L12.6524 243.605Z" fill="#C6C6C6"/>
<rect x="25" y="31" width="327" height="235" rx="9" stroke="#C6C6C6" stroke-width="12"/>
<rect x="130.728" y="108" width="100" height="18" rx="9" transform="rotate(45 130.728 108)" fill="#C6C6C6"/>
<rect x="176.722" y="177.891" width="100" height="18" rx="9" transform="rotate(-45 176.722 177.891)" fill="#C6C6C6"/>
</svg>
